<svg xmlns="http://www.w3.org/2000/svg" version="1.1" width="196.0" height="132.60254037844388">
 <line x1="98.00000000000001" y1="66.30127018922192" x2="23.00000000000003" y2="109.60254037844388" style="stroke:rgb(0,0,0);stroke-width:2" />
 <text x="60.50000000000002" y="87.9519052838329"  font-size = "15.333333333333334" fill="black">e0</text>
 <line x1="98.00000000000001" y1="66.30127018922192" x2="23.0" y2="23.0" style="stroke:rgb(0,0,0);stroke-width:2" />
 <text x="60.50000000000001" y="44.65063509461096"  font-size = "15.333333333333334" fill="black">e1</text>
 <line x1="23.00000000000003" y1="109.60254037844388" x2="23.0" y2="23.0" style="stroke:rgb(0,0,0);stroke-width:2" />
 <text x="23.000000000000014" y="66.30127018922194"  font-size = "15.333333333333334" fill="black">e2</text>
 <line x1="98.00000000000001" y1="66.30127018922192" x2="173.0" y2="109.60254037844388" style="stroke:rgb(0,0,0);stroke-width:2" />
 <text x="135.5" y="87.9519052838329"  font-size = "15.333333333333334" fill="black">e3</text>
 <line x1="98.00000000000001" y1="66.30127018922192" x2="173.0" y2="23.0" style="stroke:rgb(0,0,0);stroke-width:2" />
 <text x="135.5" y="44.65063509461096"  font-size = "15.333333333333334" fill="black">e4</text>
 <line x1="173.0" y1="109.60254037844388" x2="173.0" y2="23.0" style="stroke:rgb(0,0,0);stroke-width:2" />
 <text x="173.0" y="66.30127018922194"  font-size = "15.333333333333334" fill="black">e5</text>
 <circle cx="98.00000000000001" cy="66.30127018922192" r="23.0" fill="#193264" />
 <text x="92.25000000000001" y="72.05127018922192"  font-size = "11.5" fill="#E6CD9B">v0</text>
 <circle cx="23.00000000000003" cy="109.60254037844388" r="23.0" fill="#193264" />
 <text x="17.25000000000003" y="115.35254037844388"  font-size = "11.5" fill="#E6CD9B">v1</text>
 <circle cx="23.0" cy="23.0" r="23.0" fill="#193264" />
 <text x="17.25" y="28.75"  font-size = "11.5" fill="#E6CD9B">v2</text>
 <circle cx="173.0" cy="109.60254037844388" r="23.0" fill="#193264" />
 <text x="167.25" y="115.35254037844388"  font-size = "11.5" fill="#E6CD9B">v4</text>
 <circle cx="173.0" cy="23.0" r="23.0" fill="#193264" />
 <text x="167.25" y="28.75"  font-size = "11.5" fill="#E6CD9B">v5</text>
</svg>