<svg xmlns="http://www.w3.org/2000/svg" version="1.1" width="244.0" height="217.2050807568878" >
 <line x1="222.0" y1="108.6025403784439" x2="172.0" y2="195.20508075688775" style="stroke:rgb(0,0,0);stroke-width:2" />
 <text x="197.0" y="151.90381056766583"  font-size = "14.666666666666666" fill="black">e0</text>
 <line x1="222.0" y1="108.6025403784439" x2="72.00000000000003" y2="195.2050807568878" style="stroke:rgb(0,0,0);stroke-width:2" />
 <text x="147.0" y="151.90381056766586"  font-size = "14.666666666666666" fill="black">e1</text>
 <line x1="222.0" y1="108.6025403784439" x2="22.0" y2="108.6025403784439" style="stroke:rgb(0,0,0);stroke-width:2" />
 <text x="122.0" y="108.6025403784439"  font-size = "14.666666666666666" fill="black">e2</text>
 <line x1="222.0" y1="108.6025403784439" x2="71.99999999999996" y2="22.00000000000007" style="stroke:rgb(0,0,0);stroke-width:2" />
 <text x="146.99999999999997" y="65.30127018922198"  font-size = "14.666666666666666" fill="black">e3</text>
 <line x1="222.0" y1="108.6025403784439" x2="171.99999999999994" y2="22.0" style="stroke:rgb(0,0,0);stroke-width:2" />
 <text x="196.99999999999997" y="65.30127018922195"  font-size = "14.666666666666666" fill="black">e4</text>
 <line x1="172.0" y1="195.20508075688775" x2="72.00000000000003" y2="195.2050807568878" style="stroke:rgb(0,0,0);stroke-width:2" />
 <text x="122.00000000000001" y="195.20508075688778"  font-size = "14.666666666666666" fill="black">e5</text>
 <line x1="172.0" y1="195.20508075688775" x2="22.0" y2="108.6025403784439" style="stroke:rgb(0,0,0);stroke-width:2" />
 <text x="97.0" y="151.90381056766583"  font-size = "14.666666666666666" fill="black">e6</text>
 <line x1="172.0" y1="195.20508075688775" x2="71.99999999999996" y2="22.00000000000007" style="stroke:rgb(0,0,0);stroke-width:2" />
 <text x="121.99999999999997" y="108.6025403784439"  font-size = "14.666666666666666" fill="black">e7</text>
 <line x1="172.0" y1="195.20508075688775" x2="171.99999999999994" y2="22.0" style="stroke:rgb(0,0,0);stroke-width:2" />
 <text x="171.99999999999997" y="108.60254037844388"  font-size = "14.666666666666666" fill="black">e8</text>
 <line x1="72.00000000000003" y1="195.2050807568878" x2="22.0" y2="108.6025403784439" style="stroke:rgb(0,0,0);stroke-width:2" />
 <text x="47.000000000000014" y="151.90381056766586"  font-size = "14.666666666666666" fill="black">e9</text>
 <line x1="72.00000000000003" y1="195.2050807568878" x2="71.99999999999996" y2="22.00000000000007" style="stroke:rgb(0,0,0);stroke-width:2" />
 <text x="72.0" y="108.60254037844393"  font-size = "14.666666666666666" fill="black">e10</text>
 <line x1="72.00000000000003" y1="195.2050807568878" x2="171.99999999999994" y2="22.0" style="stroke:rgb(0,0,0);stroke-width:2" />
 <text x="121.99999999999999" y="108.6025403784439"  font-size = "14.666666666666666" fill="black">e11</text>
 <line x1="22.0" y1="108.6025403784439" x2="71.99999999999996" y2="22.00000000000007" style="stroke:rgb(0,0,0);stroke-width:2" />
 <text x="46.99999999999998" y="65.30127018922198"  font-size = "14.666666666666666" fill="black">e12</text>
 <line x1="22.0" y1="108.6025403784439" x2="171.99999999999994" y2="22.0" style="stroke:rgb(0,0,0);stroke-width:2" />
 <text x="96.99999999999997" y="65.30127018922195"  font-size = "14.666666666666666" fill="black">e13</text>
 <line x1="71.99999999999996" y1="22.00000000000007" x2="171.99999999999994" y2="22.0" style="stroke:rgb(0,0,0);stroke-width:2" />
 <text x="121.99999999999994" y="22.000000000000036"  font-size = "14.666666666666666" fill="black">e14</text>
 <circle cx="222.0" cy="108.6025403784439" r="22.0" fill="#193264" />
 <text x="216.5" y="114.1025403784439"  font-size = "11.0" fill="#E6CD9B">v0</text>
 <circle cx="172.0" cy="195.20508075688775" r="22.0" fill="#193264" />
 <text x="166.5" y="200.70508075688775"  font-size = "11.0" fill="#E6CD9B">v1</text>
 <circle cx="72.00000000000003" cy="195.2050807568878" r="22.0" fill="#193264" />
 <text x="66.50000000000003" y="200.7050807568878"  font-size = "11.0" fill="#E6CD9B">v2</text>
 <circle cx="22.0" cy="108.6025403784439" r="22.0" fill="#193264" />
 <text x="16.5" y="114.1025403784439"  font-size = "11.0" fill="#E6CD9B">v3</text>
 <circle cx="71.99999999999996" cy="22.00000000000007" r="22.0" fill="#193264" />
 <text x="66.49999999999996" y="27.50000000000007"  font-size = "11.0" fill="#E6CD9B">v4</text>
 <circle cx="171.99999999999994" cy="22.0" r="22.0" fill="#193264" />
 <text x="166.49999999999994" y="27.5"  font-size = "11.0" fill="#E6CD9B">v5</text>
</svg>