<svg xmlns="http://www.w3.org/2000/svg" version="1.1" width="348.0" height="348.0" >
 <line x1="221.2826086956522" y1="126.71739130434781" x2="126.71739130434784" y2="221.2826086956522" style="stroke:rgb(0,0,0);stroke-width:2" />
 <text x="174.0" y="174.0"  font-size = "21.434782608695652" fill="black">e0</text>
 <line x1="126.71739130434784" y1="221.2826086956522" x2="32.15217391304348" y2="126.71739130434781" style="stroke:rgb(0,0,0);stroke-width:2" />
 <text x="79.43478260869566" y="174.0"  font-size = "21.434782608695652" fill="black">e1</text>
 <line x1="221.2826086956522" y1="126.71739130434781" x2="126.71739130434784" y2="32.15217391304348" style="stroke:rgb(0,0,0);stroke-width:2" />
 <text x="174.0" y="79.43478260869564"  font-size = "21.434782608695652" fill="black">e3</text>
 <line x1="315.8478260869565" y1="221.2826086956522" x2="221.28260869565227" y2="315.8478260869565" style="stroke:rgb(0,0,0);stroke-width:2" />
 <text x="268.5652173913044" y="268.5652173913044"  font-size = "21.434782608695652" fill="black">e4</text>
 <line x1="221.28260869565227" y1="315.8478260869565" x2="126.71739130434784" y2="221.2826086956522" style="stroke:rgb(0,0,0);stroke-width:2" />
 <text x="174.00000000000006" y="268.5652173913044"  font-size = "21.434782608695652" fill="black">e5</text>
 <line x1="315.8478260869565" y1="221.2826086956522" x2="221.2826086956522" y2="126.71739130434781" style="stroke:rgb(0,0,0);stroke-width:2" />
 <text x="268.5652173913044" y="174.0"  font-size = "21.434782608695652" fill="black">e7</text>
 <line x1="315.8478260869565" y1="221.2826086956522" x2="315.8478260869565" y2="315.8478260869565" style="stroke:rgb(0,0,0);stroke-width:2" />
 <text x="315.8478260869565" y="268.5652173913044"  font-size = "21.434782608695652" fill="black">e17</text>
 <line x1="221.28260869565227" y1="315.8478260869565" x2="315.8478260869565" y2="315.8478260869565" style="stroke:rgb(0,0,0);stroke-width:2" />
 <text x="268.5652173913044" y="315.8478260869565"  font-size = "21.434782608695652" fill="black">e18</text>
 <line x1="32.15217391304348" y1="126.71739130434781" x2="126.71739130434784" y2="32.15217391304348" style="stroke:rgb(0,0,0);stroke-width:2" />
 <text x="79.43478260869566" y="79.43478260869564"  font-size = "21.434782608695652" fill="black">e19</text>
 <circle cx="221.2826086956522" cy="126.71739130434781" r="32.15217391304348" fill="#FF0000" />
 <text x="213.2445652173913" y="134.7554347826087"  font-size = "16.07608695652174" fill="#00FFFF">v0</text>
 <circle cx="126.71739130434784" cy="221.2826086956522" r="32.15217391304348" fill="#FF0000" />
 <text x="118.67934782608697" y="229.32065217391306"  font-size = "16.07608695652174" fill="#00FFFF">v1</text>
 <circle cx="32.15217391304348" cy="126.71739130434781" r="32.15217391304348" fill="#FF0000" />
 <text x="24.11413043478261" y="134.7554347826087"  font-size = "16.07608695652174" fill="#00FFFF">v2</text>
 <circle cx="126.71739130434784" cy="32.15217391304348" r="32.15217391304348" fill="#FF0000" />
 <text x="118.67934782608697" y="40.190217391304344"  font-size = "16.07608695652174" fill="#00FFFF">v3</text>
 <circle cx="315.8478260869565" cy="221.2826086956522" r="32.15217391304348" fill="#FF0000" />
 <text x="307.8097826086956" y="229.32065217391306"  font-size = "16.07608695652174" fill="#00FFFF">v4</text>
 <circle cx="221.28260869565227" cy="315.8478260869565" r="32.15217391304348" fill="#FF0000" />
 <text x="213.2445652173914" y="323.8858695652174"  font-size = "16.07608695652174" fill="#00FFFF">v5</text>
 <circle cx="315.8478260869565" cy="315.8478260869565" r="32.15217391304348" fill="#FF0000" />
 <text x="307.8097826086956" y="323.8858695652174"  font-size = "16.07608695652174" fill="#00FFFF">v16</text>
</svg>